<?xml version="1.0" encoding="UTF-8" standalone="no"?> <svg width="55" height="55" viewBox="0 0 841.9 595.3" fill="none" xmlns="http://www.w3.org/2000/svg">
<path d="M464 216H448V176C447.979 156.911 440.386 138.61 426.888 125.112C413.39 111.614 395.089 104.021 376 104H369.592C361.171 78.3971 344.883 56.1056 323.05 40.3028C301.217 24.5 274.952 15.9923 248 15.9923C221.048 15.9923 194.783 24.5 172.95 40.3028C151.117 56.1056 134.829 78.3971 126.408 104H104C93.395 104.012 83.2278 108.23 75.7289 115.729C68.23 123.228 64.0119 133.395 64 144V408C64.0265 431.331 73.3064 453.699 89.8038 470.196C106.301 486.694 128.669 495.974 152 496H360C383.331 495.974 405.699 486.694 422.196 470.196C438.694 453.699 447.974 431.331 448 408V376C460.726 375.986 472.927 370.924 481.925 361.925C490.924 352.927 495.986 340.726 496 328V248C495.99 239.516 492.616 231.382 486.617 225.383C480.618 219.384 472.484 216.01 464 216ZM464 232C468.243 232 472.313 233.686 475.314 236.686C478.314 239.687 480 243.757 480 248C480 252.243 478.314 256.313 475.314 259.314C472.313 262.314 468.243 264 464 264H448V232H464ZM376 120C390.847 120.017 405.081 125.922 415.58 136.42C426.078 146.919 431.983 161.153 432 176V205.462C425.2 195.776 416.518 187.56 406.473 181.302C396.429 175.045 385.226 170.875 373.535 169.041C376.754 152.859 376.822 136.208 373.735 120H376ZM248 32C264.742 32.0149 281.268 35.7796 296.365 43.0178C311.462 50.256 324.745 60.7837 335.24 73.8279C345.735 86.8722 353.175 102.102 357.014 118.398C360.853 134.694 360.992 151.643 357.423 168H340.95C344.607 153.816 344.969 138.984 342.009 124.638C339.05 110.293 332.846 96.8149 323.875 85.2366C314.903 73.6583 303.4 64.2867 290.248 57.8394C277.095 51.3921 262.642 48.0401 247.995 48.0401C233.347 48.0401 218.894 51.3921 205.741 57.8394C192.589 64.2867 181.086 73.6583 172.115 85.2366C163.143 96.8149 156.939 110.293 153.98 124.638C151.02 138.984 151.382 153.816 155.039 168H138.592C135.011 151.643 135.142 134.691 138.975 118.391C142.809 102.092 150.247 86.8582 160.742 73.8114C171.238 60.7647 184.525 50.2364 199.625 43.0007C214.725 35.765 231.256 32.006 248 32V32ZM287.71 168C288.343 163.641 287.936 159.194 286.521 155.023C285.106 150.851 282.724 147.074 279.569 144C283.005 140.645 285.52 136.461 286.871 131.852C288.221 127.243 288.363 122.364 287.281 117.684C286.199 113.005 283.93 108.683 280.693 105.135C277.456 101.586 273.361 98.9312 268.8 97.425V91.2C268.8 89.0783 267.957 87.0434 266.457 85.5431C264.957 84.0428 262.922 83.2 260.8 83.2C258.678 83.2 256.643 84.0428 255.143 85.5431C253.643 87.0434 252.8 89.0783 252.8 91.2V96H243.2V91.2C243.2 89.0783 242.357 87.0434 240.857 85.5431C239.357 84.0428 237.322 83.2 235.2 83.2C233.078 83.2 231.043 84.0428 229.543 85.5431C228.043 87.0434 227.2 89.0783 227.2 91.2V96H216C213.878 96 211.843 96.8428 210.343 98.3431C208.843 99.8434 208 101.878 208 104C208 106.122 208.843 108.157 210.343 109.657C211.843 111.157 213.878 112 216 112H224V168H171.678C167.913 156.018 167.021 143.318 169.076 130.928C171.13 118.538 176.073 106.805 183.505 96.6803C190.936 86.5553 200.647 78.3222 211.851 72.6474C223.056 66.9725 235.439 64.0155 247.998 64.0155C260.557 64.0155 272.941 66.9725 284.145 72.6474C295.349 78.3222 305.06 86.5553 312.491 96.6803C319.923 106.805 324.866 118.538 326.92 130.928C328.975 143.318 328.083 156.018 324.318 168H287.71ZM260 112C263.183 112 266.235 113.264 268.485 115.515C270.736 117.765 272 120.817 272 124C272 127.183 270.736 130.235 268.485 132.485C266.235 134.736 263.183 136 260 136H240V112H260ZM240 152H260C261.92 151.999 263.813 152.458 265.518 153.34C267.224 154.223 268.692 155.502 269.801 157.069C270.909 158.637 271.625 160.449 271.887 162.351C272.15 164.253 271.952 166.19 271.31 168H240V152ZM104 120H122.266C119.244 135.857 119.244 152.143 122.266 168C122.266 168 102.327 167.992 101.959 167.975C90.553 167.454 81.17 158.219 80.07 146.464C80.07 146.464 79.999 144.164 79.999 144C80.0064 137.637 82.5375 131.537 87.037 127.037C91.5365 122.538 97.6369 120.007 104 120V120ZM432 408C431.979 427.089 424.386 445.39 410.888 458.888C397.39 472.386 379.089 479.979 360 480H152C132.911 479.979 114.61 472.386 101.112 458.888C87.614 445.39 80.0214 427.089 80 408V368H152V400C152 402.122 152.843 404.157 154.343 405.657C155.843 407.157 157.878 408 160 408H225.013C226.96 415.541 231.591 422.114 238.037 426.485C244.483 430.856 252.302 432.726 260.029 431.745C267.756 430.764 274.859 426.998 280.008 421.154C285.156 415.31 287.997 407.789 287.997 400C287.997 392.211 285.156 384.69 280.008 378.846C274.859 373.002 267.756 369.236 260.029 368.255C252.302 367.274 244.483 369.144 238.037 373.515C231.591 377.886 226.96 384.459 225.013 392H168V360C168 357.878 167.157 355.843 165.657 354.343C164.157 352.843 162.122 352 160 352H80V336H225.013C226.96 343.541 231.591 350.114 238.037 354.485C244.483 358.856 252.302 360.726 260.029 359.745C267.756 358.764 274.859 354.998 280.008 349.154C285.156 343.31 287.997 335.789 287.997 328C287.997 320.211 285.156 312.69 280.008 306.846C274.859 301.002 267.756 297.236 260.029 296.255C252.302 295.274 244.483 297.144 238.037 301.515C231.591 305.886 226.96 312.459 225.013 320H80V304H160C162.122 304 164.157 303.157 165.657 301.657C167.157 300.157 168 298.122 168 296V256H225.013C226.96 263.541 231.591 270.114 238.037 274.485C244.483 278.856 252.302 280.726 260.029 279.745C267.756 278.764 274.859 274.998 280.008 269.154C285.156 263.31 287.997 255.789 287.997 248C287.997 240.211 285.156 232.69 280.008 226.846C274.859 221.002 267.756 217.236 260.029 216.255C252.302 215.274 244.483 217.144 238.037 221.515C231.591 225.886 226.96 232.459 225.013 240H160C157.878 240 155.843 240.843 154.343 242.343C152.843 243.843 152 245.878 152 248V288H80V176.311C86.1471 180.934 93.5439 183.599 101.227 183.958C101.836 183.986 360 184 360 184C379.089 184.021 397.39 191.614 410.888 205.112C424.386 218.61 431.979 236.911 432 256V264H376C361.148 264 346.904 269.9 336.402 280.402C325.9 290.904 320 305.148 320 320C320 334.852 325.9 349.096 336.402 359.598C346.904 370.1 361.148 376 376 376H432V408ZM240 400C240 396.835 240.938 393.742 242.696 391.111C244.455 388.48 246.953 386.429 249.877 385.218C252.801 384.007 256.018 383.69 259.121 384.307C262.225 384.925 265.076 386.449 267.314 388.686C269.551 390.924 271.075 393.775 271.693 396.879C272.31 399.982 271.993 403.199 270.782 406.123C269.571 409.047 267.52 411.545 264.889 413.304C262.258 415.062 259.165 416 256 416C251.758 415.995 247.691 414.308 244.692 411.308C241.692 408.309 240.005 404.242 240 400V400ZM240 328C240 324.835 240.938 321.742 242.696 319.111C244.455 316.48 246.953 314.429 249.877 313.218C252.801 312.007 256.018 311.69 259.121 312.307C262.225 312.925 265.076 314.449 267.314 316.686C269.551 318.924 271.075 321.775 271.693 324.879C272.31 327.982 271.993 331.199 270.782 334.123C269.571 337.047 267.52 339.545 264.889 341.304C262.258 343.062 259.165 344 256 344C251.758 343.995 247.691 342.308 244.692 339.308C241.692 336.309 240.005 332.242 240 328V328ZM240 248C240 244.835 240.938 241.742 242.696 239.111C244.455 236.48 246.953 234.429 249.877 233.218C252.801 232.007 256.018 231.69 259.121 232.307C262.225 232.925 265.076 234.449 267.314 236.686C269.551 238.924 271.075 241.775 271.693 244.879C272.31 247.982 271.993 251.199 270.782 254.123C269.571 257.047 267.52 259.545 264.889 261.304C262.258 263.062 259.165 264 256 264C251.758 263.995 247.691 262.308 244.692 259.308C241.692 256.309 240.005 252.242 240 248ZM376 360C365.391 360 355.217 355.786 347.716 348.284C340.214 340.783 336 330.609 336 320C336 309.391 340.214 299.217 347.716 291.716C355.217 284.214 365.391 280 376 280H464C469.62 280.004 475.141 278.519 480 275.695V328C479.99 336.484 476.616 344.618 470.617 350.617C464.618 356.616 456.484 359.99 448 360H376Z" fill="cyan"/>
<path d="M348 320C348 325.538 349.642 330.951 352.719 335.556C355.796 340.161 360.169 343.749 365.285 345.869C370.401 347.988 376.031 348.542 381.463 347.462C386.894 346.382 391.883 343.715 395.799 339.799C399.715 335.883 402.382 330.894 403.462 325.463C404.542 320.031 403.988 314.401 401.869 309.285C399.749 304.169 396.161 299.796 391.556 296.719C386.951 293.642 381.538 292 376 292C368.577 292.008 361.46 294.961 356.21 300.21C350.961 305.46 348.008 312.577 348 320ZM388 320C388 322.373 387.296 324.693 385.978 326.667C384.659 328.64 382.785 330.178 380.592 331.087C378.399 331.995 375.987 332.232 373.659 331.769C371.331 331.306 369.193 330.164 367.515 328.485C365.836 326.807 364.694 324.669 364.231 322.341C363.768 320.013 364.005 317.601 364.913 315.408C365.822 313.215 367.36 311.341 369.333 310.022C371.307 308.704 373.627 308 376 308C379.182 308.003 382.232 309.269 384.481 311.519C386.731 313.768 387.997 316.818 388 320Z" fill="cyan"/>
</svg>
